<svg fill="none" height="512" viewBox="0 0 24 24" width="512" xmlns="http://www.w3.org/2000/svg"><path clip-rule="evenodd" d="m11.2677 3.52896c.7452-.271 1.603-.29284 2.5486.02236.5239.17464.8071.74096.6324 1.26491-.1746.52394-.741.8071-1.2649.63245-.5544-.1848-.9466-.14414-1.2327-.04014-.3029.11015-.5719.32351-.8079.60664-.2362.28351-.411.60363-.5281.86393-.0574.12758-.0982.23446-.1236.3063-.0127.03576-.0214.06237-.0263.07797l-.0041.01303-.201.72354h3.7399c.4305 0 .8126.27543.9487.68377l.5108 1.53238c.2921-.35405.5885-.6896.8844-.98213.3708-.36643.785-.71104 1.2372-.94528.4601-.23829 1.0147-.38944 1.615-.26938.5416.10831.8928.63513.7845 1.17669s-.6351.8928-1.1767.78447c-.0247-.00494-.1106-.01547-.3029.08413-.2001.1036-.45.2942-.7511.5918-.4859.4803-.9902 1.1199-1.533 1.8319l.7022 2.1066c.0177.0294.0428.0687.0743.1129.0819.1145.1794.2224.2754.2909.0875.0625.1247.0594.1307.0589.0051-.0003.138-.0093.3934-.2648.3905-.3905 1.0237-.3905 1.4142 0 .3906.3906.3906 1.0237 0 1.4143-.4919.4919-1.047.7979-1.6538.8446-.6046.0465-1.0989-.1769-1.447-.4255-.3415-.244-.5878-.5424-.7403-.756-.0792-.1108-.1404-.2092-.1833-.2824-.0215-.0368-.0387-.0678-.0515-.0917-.0065-.0119-.0118-.022-.0161-.0303l-.0055-.0108-.0022-.0043-.001-.0019c-.0002-.0004-.0008-.0016.8936-.4489l-.8944.4473c-.0212-.0424-.0393-.0861-.0543-.131l-.3095-.9286c-.366.44-.7424.8537-1.1216 1.1932-.7105.6361-1.7875 1.3292-2.9916.8476-.5127-.2051-.76216-.7871-.557-1.2999.2051-.5128.787-.7622 1.2998-.5571.046.0184.2814.0864.9147-.4806.5254-.4704 1.0848-1.1674 1.6995-1.9718l-.7063-2.11905h-3.57473l-1.74102 6.26765c-.00784.0283-.01691.0561-.02719.0835l-.93633-.3511c.93633.3511.93647.3508.93633.3511l-.00058.0016-.00072.0019-.00188.0049-.00547.0142c-.00442.0114-.01037.0265-.01786.0451-.01498.0371-.03617.0882-.0636.1511-.05473.1254-.13493.299-.24089.502-.20964.4018-.53116.9407-.97108 1.4539-.87261 1.018-2.39293 2.1087-4.45048 1.4229-.52394-.1747-.8071-.741-.63246-1.2649.17465-.524.74097-.8071 1.26491-.6325.94245.3142 1.67214-.0951 2.29952-.8271.31009-.3618.55106-.7604.71642-1.0774.08155-.1563.14197-.2874.18099-.3768.01639-.0376.02889-.0675.03747-.0886l1.5782-5.68145h-2.12882c-.55229 0-1-.44772-1-1 0-.55229.44771-1 1-1h2.68437l.35408-1.27468.96133.27467c-.96131-.27466-.96146-.27423-.96133-.27467l.00054-.00179.00061-.00212.00153-.00523.00425-.0143c.00337-.01121.00783-.02574.01341-.04334.01117-.03518.02687-.08279.04741-.14077.04096-.11566.10179-.27441.185-.45933.16412-.3647.42683-.85708.81558-1.32357.38905-.46687.93249-.94101 1.66089-1.20586z" fill="rgb(0,0,0)" fill-rule="evenodd"/></svg>